<?xml version="1.0" encoding="utf-8"?><svg viewBox="0 0 448 512" xmlns="http://www.w3.org/2000/svg" xmlns:xlink="http://www.w3.org/1999/xlink"><style>:root>svg{display:none}:root>svg:target{display:block}</style><svg viewBox="0 0 22 9" id="arrow-left" xmlns="http://www.w3.org/2000/svg"><path d="M21.7 3.53H4.76l.1-2.86a.3.3 0 00.08-.2.323.323 0 00-.08-.21L4.68.09a.267.267 0 00-.4 0L.08 4.3a.3.3 0 00-.08.2.323.323 0 00.08.21l4.2 4.21a.29.29 0 00.4 0l.18-.17a.323.323 0 00.08-.21.3.3 0 00-.08-.2l-.12-2.86h16.97a.3.3 0 00.29-.3V3.81a.291.291 0 00-.3-.28z"/></svg><svg viewBox="0 0 24 24" id="basket" xmlns="http://www.w3.org/2000/svg"><path d="M1.5 6h21v15a3 3 0 01-3 3h-15a3 3 0 01-3-3V6zM12 2.25A3.75 3.75 0 008.25 6h-1.5a5.25 5.25 0 1110.5 0h-1.5A3.75 3.75 0 0012 2.25z"/></svg><svg aria-hidden="true" data-prefix="fas" data-icon="user" class="csvg-inline--fa cfa-user cfa-w-14" viewBox="0 0 448 512" id="user-icon" xmlns="http://www.w3.org/2000/svg"><path d="M224 256c70.7 0 128-57.3 128-128S294.7 0 224 0 96 57.3 96 128s57.3 128 128 128zm89.6 32h-16.7c-22.2 10.2-46.9 16-72.9 16s-50.6-5.8-72.9-16h-16.7C60.2 288 0 348.2 0 422.4V464c0 26.5 21.5 48 48 48h352c26.5 0 48-21.5 48-48v-41.6c0-74.2-60.2-134.4-134.4-134.4z"/></svg></svg>