<svg width="21" height="21" viewBox="0 0 21 21" fill="none" xmlns="http://www.w3.org/2000/svg">
<path d="M19.9712 19.9713C20.2635 19.6791 20.2641 19.2055 19.9726 18.9124L14.8375 13.7501C16.1912 12.1167 16.8637 10.0247 16.7153 7.9085C16.5669 5.7923 15.609 3.81458 14.0406 2.38615C12.4722 0.957712 10.4138 0.188343 8.29297 0.237844C6.17215 0.287345 4.1519 1.15191 2.65184 2.65197C1.15179 4.15202 0.287223 6.17227 0.237722 8.29309C0.188221 10.4139 0.95759 12.4723 2.38603 14.0407C3.81446 15.6091 5.79217 16.567 7.90838 16.7154C10.0246 16.8638 12.1166 16.1913 13.75 14.8376L18.9123 19.9727C19.2053 20.2642 19.679 20.2636 19.9712 19.9713ZM1.74996 8.50008C1.74996 7.16506 2.14584 5.86001 2.88754 4.74998C3.62924 3.63995 4.68345 2.77479 5.91685 2.2639C7.15025 1.753 8.50745 1.61933 9.81682 1.87978C11.1262 2.14023 12.3289 2.78311 13.2729 3.72711C14.2169 4.67112 14.8598 5.87385 15.1203 7.18322C15.3807 8.49259 15.247 9.84979 14.7361 11.0832C14.2253 12.3166 13.3601 13.3708 12.2501 14.1125C11.14 14.8542 9.83498 15.2501 8.49996 15.2501C6.70975 15.2501 4.99286 14.5389 3.72699 13.2731C2.46112 12.0072 1.74996 10.2903 1.74996 8.50008Z" fill="#666666"/>
</svg>
