<svg width="16" height="16" viewBox="0 0 16 16" fill="none" xmlns="http://www.w3.org/2000/svg">
<path d="M15.701 0.00101143L11.5532 0C11.4322 0 11.323 0.0728249 11.2769 0.184131C11.2304 0.295438 11.2559 0.423342 11.3414 0.508902L12.903 2.06462L2.07106 12.9133L0.510821 11.3589C0.425307 11.2738 0.296552 11.2483 0.184826 11.2943C0.0730997 11.3405 0.000369339 11.4491 0.000369339 11.5696L0 15.7011C0 15.8658 0.133647 15.999 0.299044 15.999L4.4468 16C4.5678 16 4.67704 15.9273 4.72309 15.816C4.76961 15.7046 4.74409 15.5767 4.65858 15.4911L3.09833 13.9368L11.351 5.65507L13.9289 3.0867L15.4892 4.64108C15.5747 4.72627 15.7034 4.7517 15.8152 4.70572C15.9269 4.65947 15.9996 4.55097 15.9996 4.43047L16 0.298978C16 0.134294 15.8663 0.00101143 15.701 0.00101143Z" fill="#666666"/>
</svg>
